# xmcd CD database file
#
# Track frame offsets:
#	150
#	13465
#	27800
#	40651
#	52442
#	64721
#	77409
#	89351
#	101296
#	113819
#	127164
#	141381
#	154679
#	167791
#	180148
#
# Disc length: 2565 seconds
#
# Revision: 2
# Processed by: cddbd v1.5.2PL0 Copyright (c) Steve Scherf et al.
# Submitted via: CDex 1.50beta10
#
DISCID=c30a030f
DTITLE=Various Artist - Songs of the Wild West CD2
DYEAR=1900
DGENRE=Country
TTITLE0=Cowboy Nightherd Song- Roy Rogers
TTITLE1=Home on the Range- Carson Robison and His Pioneers
TTITLE2=Lucy Long- Praire Ramblers
TTITLE3=Ragtime Cowboy Joe- Louise Massey
TTITLE4=Song of the Bandit- Sons of the Pioneers
TTITLE5=Blue Ranger- Hank Snow
TTITLE6=I was Born in Old Wyoming- Carson Robison
TTITLE7=A Hundred and Sixty Acres- Ernest Tubb
TTITLE8=You Are My Sunshine- Bob Archer and Bonnie Blue Eyes
TTITLE9=Open Range Ahead- The Sons of the Pioneers
TTITLE10=There's a Bridle Hanging on the Eall- Carson Robison
TTITLE11=Pistol Packin' Papa- Jimmie Rogers
TTITLE12=I'm an Old Cowhand- Patsy Montana
TTITLE13=My Prairie Queen- Sons of the West
TTITLE14=I've Sold My Saddle for an Old Guitar- Roy Rogers
EXTD=
EXTT0=
EXTT1=
EXTT2=
EXTT3=
EXTT4=
EXTT5=
EXTT6=
EXTT7=
EXTT8=
EXTT9=
EXTT10=
EXTT11=
EXTT12=
EXTT13=
EXTT14=
PLAYORDER=
